<?xml version="1.0" encoding="UTF-8"?>
<svg width="800" height="800" version="1.1" viewBox="0 0 16 16" xmlns="http://www.w3.org/2000/svg">
 <path d="M0 0h16v16H0z" fill="none"/>
 <path d="M15.117 0H.883A.883.883 0 0 0 0 .883v14.234c0 .488.395.883.883.883h7.664V9.812H6.469V7.391h2.078V5.608c0-2.067 1.262-3.192 3.106-3.192.883 0 1.642.066 1.863.095v2.16l-1.271.001c-1.003 0-1.197.477-1.197 1.176v1.543h2.398l-.312 2.422h-2.086V16h4.07a.88.88 0 0 0 .882-.883V.883A.883.883 0 0 0 15.117 0" fill="#006575"/>
</svg>
