<?xml version="1.0" encoding="UTF-8"?>
<svg width="800" height="800" data-name="Layer 1" version="1.1" viewBox="0 0 24 24" xmlns="http://www.w3.org/2000/svg">
 <path d="m22.215 0.093393h-20.39a1.7453 1.7322 0 0 0-1.7694 1.7083v20.475a1.7453 1.7322 0 0 0 1.7694 1.7083h20.39a1.7453 1.7322 0 0 0 1.7694-1.7083v-20.475a1.7453 1.7322 0 0 0-1.7694-1.7083m-14.902 19.997h-3.611v-10.751h3.611zm-1.8055-12.257a1.8777 1.8636 0 1 1 0-3.7271 1.8898 1.8755 0 1 1 0 3.7271m14.829 12.257h-3.611v-5.7699c0-1.4455-0.51758-2.3892-1.8296-2.3892a1.9861 1.9711 0 0 0-1.8537 1.3021 2.4074 2.3892 0 0 0-0.12037 0.87205v5.973h-3.611v-10.751h3.611v1.5171a3.611 3.5838 0 0 1 3.262-1.7919c2.4074 0 4.1527 1.541 4.1527 4.85z" fill="#006575" stroke-width="1.1991"/>
</svg>
