<?xml version="1.0" encoding="UTF-8" standalone="no"?>
<!-- Created with Inkscape (http://www.inkscape.org/) -->

<svg
   version="1.1"
   id="svg2"
   width="1066.6667"
   height="653.33331"
   viewBox="0 0 1066.6667 653.33331"
   sodipodi:docname="salimpa_logotipo_vetorial 2.svg"
   inkscape:version="1.3.2 (091e20e, 2023-11-25, custom)"
   xmlns:inkscape="http://www.inkscape.org/namespaces/inkscape"
   xmlns:sodipodi="http://sodipodi.sourceforge.net/DTD/sodipodi-0.dtd"
   xmlns="http://www.w3.org/2000/svg"
   xmlns:svg="http://www.w3.org/2000/svg">
  <defs
     id="defs6">
    <linearGradient
       id="linearGradient1"
       inkscape:swatch="gradient">
      <stop
         style="stop-color:#000000;stop-opacity:1;"
         offset="0"
         id="stop1" />
      <stop
         style="stop-color:#000000;stop-opacity:0;"
         offset="1"
         id="stop2" />
    </linearGradient>
  </defs>
  <sodipodi:namedview
     id="namedview4"
     pagecolor="#424242"
     bordercolor="#000000"
     borderopacity="0.25"
     inkscape:showpageshadow="2"
     inkscape:pageopacity="0.0"
     inkscape:pagecheckerboard="0"
     inkscape:deskcolor="#d1d1d1"
     showgrid="false"
     inkscape:zoom="1.321496"
     inkscape:cx="473.32719"
     inkscape:cy="319.71341"
     inkscape:window-width="2560"
     inkscape:window-height="1417"
     inkscape:window-x="2552"
     inkscape:window-y="-8"
     inkscape:window-maximized="1"
     inkscape:current-layer="g10" />
  <g
     id="g8"
     inkscape:groupmode="layer"
     inkscape:label="ink_ext_XXXXXX"
     transform="matrix(1.3333333,0,0,-1.3333333,0,653.33333)">
    <g
       id="g10"
       transform="matrix(0.1,0,0,0.1,-1.6808633e-7,-0.80262108)"
       style="stroke:#ffffff;stroke-opacity:0.24896266;stroke-width:3.82677175;stroke-dasharray:none;stroke-linejoin:bevel;stroke-linecap:round">
      <path
         d="m 3728.6988,3312.7806 c -103.73,-67.57 -216.85,-98.29 -340.99,-91.24 -231.16,13.13 -438.48,187.84 -487.38,415.1 -42.69,198.35 9.59,370.44 152.02,513.74 244.32,245.82 490.3,489.98 734.84,735.61 16.58,16.66 23.77,14.79 39.2,-0.74 241.08,-242.35 482.71,-484.19 724.91,-725.43 15.75,-15.68 14.26,-23.19 -0.55,-37.8 -97.79,-96.46 -194.58,-193.96 -291.83,-290.98 -6.08,-6.05 -13.35,-10.93 -22.52,-18.34 13.41,-3.16 17.52,4 22.73,7.59 329.78,228.08 781.53,36.06 842.21,-360.27 28.16,-183.98 -29.85,-342.57 -161.1,-473.99 -244.34,-244.68 -489.3,-488.76 -733.25,-733.83 -16.6,-16.68 -24.15,-15.06 -39.75,0.63 -241.62,242.95 -483.77,485.35 -726.46,727.23 -14.5,14.45 -12.66,20.82 0.71,34.08 98.09,97.2 195.27,195.32 292.73,293.14 2.03,4.01 2.63,8.79 5.16,9.83 -1.57,-2.23 -6.66,-2.27 -10.68,-4.33"
         style="fill:#006575;fill-opacity:1;fill-rule:evenodd;stroke:#ffffff;stroke-width:3.82677;stroke-linecap:round;stroke-linejoin:bevel;stroke-dasharray:none;stroke-opacity:0.248963"
         id="path12" />
      <path
         d="m 4385.51,1484.18 c 11.64,-259.58 2.15,-519.321 5.57,-778.95 0.19,-14.25 -5.13,-16.621 -17.75,-16.554 -87.62,0.469 -175.25,0.637 -262.87,-0.137 -15.06,-0.117 -18.11,4.469 -18.1,18.633 0.37,416.028 0.38,832.048 0,1248.088 -0.02,14.19 3.03,18.78 18.06,18.7 117.62,-0.64 235.25,-0.8 352.87,0.15 16.79,0.14 21.2,-8.5 26.35,-20.56 109.03,-255.42 218.22,-510.78 327.38,-766.15 3.38,-7.92 6.93,-15.76 11.99,-27.22 22.16,51.55 43.11,100.05 63.86,148.61 91.84,214.84 183.84,429.64 275.01,644.78 6.68,15.75 14.66,20.53 31.26,20.42 111.3,-0.75 222.62,-0.74 333.92,-0.03 17.38,0.12 23.82,-2.86 23.78,-22.52 -0.64,-413.66 -0.61,-827.32 -0.06,-1240.979 0.03,-17.68 -4.18,-22.207 -21.95,-22 -87.62,1.012 -175.26,0.852 -262.89,0.109 -16.47,-0.14 -23.12,2.243 -23.05,21.352 0.75,226.57 0.32,453.128 0.7,679.698 0.04,29.95 2.79,59.9 4.28,89.84 4.13,8.58 -0.13,17.61 1.76,27.2 -2.08,-3.71 -3.67,-6.68 -6.5,-8.67 -44.63,-142.88 -108.28,-278.29 -164.04,-416.78 -50.17,-124.714 -102.75,-248.448 -153.38,-372.972 -6,-14.734 -12.65,-20.097 -28.83,-19.765 -55.99,1.16 -112.01,0.613 -168.01,0.308 -10.98,-0.062 -18.29,0.969 -23.38,13.578 -101.76,252.215 -211.06,501.341 -307.76,755.621 -5.01,13.2 -8.78,26.86 -13.14,40.31 -1.5,1.62 -2.57,4.91 -3.69,5.15 -3.31,0.75 -1.61,-2.75 -2.01,-4.2 -1.41,-4.98 -1.94,-10.14 0.62,-15.06"
         style="fill:#2c302b;fill-opacity:1;fill-rule:evenodd;stroke:#ffffff;stroke-opacity:0.24896266;stroke-width:3.82677175;stroke-dasharray:none;stroke-linejoin:bevel;stroke-linecap:round"
         id="path14" />
      <path
         d="m 860.387,1641.34 c -68.793,41.21 -139.696,73.07 -215.766,92.09 -66.949,16.74 -134.754,27.62 -203.418,11.42 -65.215,-15.39 -97.269,-64.17 -82.004,-121.21 7.547,-28.21 27.762,-45.21 51.836,-58.34 43.961,-23.96 92.149,-35.92 140.285,-47.87 79.625,-19.76 157.426,-44.37 230.043,-83.57 C 952.695,1341.37 1008.38,1197.24 985.961,1014 964.488,838.496 856.117,734.781 692.379,691.586 454.039,628.684 230.203,665.371 27.375,811.102 8.41016,824.719 4.32813,836.223 12.0039,859.176 c 24.418,73.051 45.4649,147.224 68.8945,224.524 8.1836,-6.52 14.5352,-11.56 20.8636,-16.61 91.707,-73.352 191.547,-129.942 309.39,-148.692 60.641,-9.628 121.125,-10.843 179.532,12.02 62.863,24.621 90.425,75.922 77.336,141.472 -6.184,30.99 -25.817,51.7 -52.114,66.73 -55.343,31.63 -116.703,46.5 -177.679,61.91 -78.934,19.95 -154.93,46.07 -225.247,88.63 -222.97219,134.97 -225.4878,463.86 -52.523,605.11 68.598,56.03 147.34,87.78 233.531,100.7 184.996,27.77 357.008,-9.68 516.391,-107.39 16.117,-9.88 20.184,-18.74 14.043,-37.56 -22.387,-68.62 -42.539,-137.97 -64.035,-208.68"
         style="fill:#2c302b;fill-opacity:1;fill-rule:evenodd;stroke:#ffffff;stroke-opacity:0.24896266;stroke-width:3.82677175;stroke-dasharray:none;stroke-linejoin:bevel;stroke-linecap:round"
         id="path16" />
      <path
         d="m 2519.6,1331.75 c 0,205.97 0.31,411.95 -0.49,617.92 -0.07,19.72 4.71,24.65 24.44,24.44 99.42,-1.1 198.87,-1.06 298.29,-0.04 19.25,0.21 24.81,-3.91 24.76,-24.14 -0.71,-323.56 -0.2,-647.13 -1.11,-970.7 -0.07,-24.074 5.83,-29.632 29.61,-29.468 164.14,1.16 328.29,0.234 492.44,1.097 19.8,0.11 24.82,-4.914 24.48,-24.586 -1.25,-72.574 -0.9,-145.199 -0.17,-217.8 0.16,-15.082 -3.37,-19.95 -19.36,-19.918 -284.9,0.504 -569.79,0.597 -854.67,-0.133 -20.19,-0.055 -18.36,9.812 -18.35,23.027 0.18,206.766 0.13,413.531 0.13,620.301"
         style="fill:#2c302b;fill-opacity:1;fill-rule:evenodd;stroke:#ffffff;stroke-opacity:0.24896266;stroke-width:3.82677175;stroke-dasharray:none;stroke-linejoin:bevel;stroke-linecap:round"
         id="path18" />
      <path
         d="m 3899.09,1330.61 c 0,-205.99 -0.3,-411.989 0.51,-617.977 0.09,-20.113 -5.44,-24.399 -24.77,-24.192 -100.22,1.032 -200.47,0.95 -300.69,0.032 -17.61,-0.16 -22.07,4.058 -22.05,21.894 0.55,413.563 0.57,827.123 -0.02,1240.683 -0.03,18.88 5.2,23.14 23.36,22.98 100.22,-0.89 200.46,-0.9 300.69,0 18.26,0.17 23.5,-4.21 23.44,-23.08 -0.73,-206.78 -0.47,-413.56 -0.47,-620.34"
         style="fill:#2c302b;fill-opacity:1;fill-rule:evenodd;stroke:#ffffff;stroke-opacity:0.24896266;stroke-width:3.82677175;stroke-dasharray:none;stroke-linejoin:bevel;stroke-linecap:round"
         id="path20" />
      <path
         d="m 6547.09,115.98 c 0.04,7.106 0.92,14.336 -0.13,21.293 -3,19.747 4.68,25.684 24.49,25.047 16.59,-0.547 22.08,-5.109 21.11,-21.652 -1.11,-18.84 -0.67,-37.934 0.98,-56.7461 2.41,-27.6875 19.38,-41.5977 49.82,-43.0156 31.34,-1.4688 50.43,11.9843 55.46,39.3554 3.75,20.3363 2.93,40.8863 1.68,61.3673 -1.16,19.105 -12.07,31.883 -28.15,40.965 -26.73,15.101 -53.29,30.539 -80.19,45.355 -31.36,17.289 -47.04,43.071 -45.1,79.266 1.2,21.988 -1.6,44.066 3.45,66.015 6.38,27.774 22.39,46.36 49.02,55.79 30.85,10.921 61.79,10.851 92.65,0 35.2,-12.368 49.44,-39.747 51.76,-74.594 1.26,-18.863 -0.37,-37.91 0.71,-56.797 1.21,-20.742 -13.46,-14.707 -24.02,-15.274 -10.91,-0.585 -22.63,-2.796 -21.67,15.403 1.03,18.883 0.77,37.957 -0.71,56.793 -2.25,28.711 -19.28,41.621 -52.32,41.648 -33.19,0.035 -49.41,-12.687 -52.66,-41.418 -0.43,-3.918 -0.23,-7.926 -0.84,-11.808 -7.3,-45.496 7.71,-77.317 52.64,-95.196 23.13,-9.211 44.39,-23.757 65.35,-37.64 23.99,-15.86 35.98,-39.008 34.78,-68.336 -1.02,-25.196 2.26,-50.5471 -2.22,-75.5979 -1.22,-6.9023 -3.46,-13.7773 -6.28,-20.207 -15.57,-35.3359 -57.25,-50.92579 -115.32,-43.47657 -41.47,5.32031 -63.51,25.43747 -71.48,63.93747 -3.42,16.4805 -2.27,33 -2.81,49.523"
         style="fill:#2c302b;fill-opacity:1;fill-rule:evenodd;stroke:#ffffff;stroke-opacity:0.24896266;stroke-width:3.82677175;stroke-dasharray:none;stroke-linejoin:bevel;stroke-linecap:round"
         id="path22" />
      <path
         d="m 4072.1,112.457 c 0,8.684 0.96,17.496 -0.21,26.016 -2.56,18.699 4.55,24.254 23.36,23.836 16.51,-0.356 22.3,-4.614 20.98,-21.34 -1.36,-17.258 -0.93,-34.754 0.15,-52.0588 1.91,-30.6055 19.01,-46.3204 50.6,-48.0157 32.46,-1.7461 53.29,13.1407 56.92,43.6797 2.31,19.4688 1.77,39.4608 0.52,59.0818 -1.22,18.981 -14.04,31.047 -29.81,40.008 -26.68,15.18 -53.44,30.277 -80.2,45.328 -29.53,16.598 -44.77,40.922 -42.48,75.613 0.99,14.938 -0.19,29.997 0.3,44.981 0.36,10.977 0.84,21.879 4.63,32.594 14,39.601 56.68,60.925 109.4,54.07 50.89,-6.617 79.19,-33.937 81.19,-79.402 0.87,-19.707 -0.78,-39.543 0.57,-59.18 1.46,-21.059 -13.14,-14.398 -23.59,-15.402 -12.07,-1.157 -21.36,-0.645 -20.38,16.496 1.14,19.593 1.83,39.433 -2.15,59 -5.69,28.16 -19.93,38.64 -52.91,38.437 -31.46,-0.168 -48.95,-12.461 -51.96,-39.879 -2.14,-19.496 -1.55,-39.468 -0.32,-59.105 1.03,-16.477 13.14,-26.469 26.47,-34.117 25.27,-14.496 50.84,-28.493 76.31,-42.618 34.06,-18.91 52.58,-46.23 49.34,-86.71 -1.52,-18.832 0.04,-37.895 -0.95,-56.8052 -1.99,-38.1796 -21.28,-61.1953 -57.76,-71.03902 -23.37,-6.281249 -47.17,-6.042968 -70.46,-2.16406 -43.5,7.25388 -64.13,31.41798 -67,75.55468 -0.7,11.0039 -0.11,22.0856 -0.11,33.1406 -0.14,0 -0.3,0 -0.45,0"
         style="fill:#2c302b;fill-opacity:1;fill-rule:evenodd;stroke:#ffffff;stroke-opacity:0.24896266;stroke-width:3.82677175;stroke-dasharray:none;stroke-linejoin:bevel;stroke-linecap:round"
         id="path24" />
      <path
         d="m 5812.67,217.324 c 0,41.813 -0.19,83.641 0.05,125.446 0.3,56.21 24.61,84.488 79.81,92.894 22.16,3.375 44.19,1.5 65.46,-5.269 30.46,-9.704 48.64,-30.379 53.83,-62.461 4.45,-27.508 1.54,-55.121 2.43,-82.668 0.71,-21.743 -15.93,-11.692 -25.44,-12.989 -9.43,-1.281 -21.12,-3.929 -20.1,13.602 1.15,19.656 0.64,39.453 -0.1,59.152 -1.33,35.254 -17.9,50.438 -54.1,50.664 -37.54,0.219 -55.06,-13.535 -55.48,-48.605 -1.05,-85.176 -1.03,-170.379 -0.07,-255.5666 0.4,-35.1992 18.37,-49.9375 54.92,-49.7539 35.85,0.1563 53.42,15.9532 54.7,50.5938 0.85,23.6367 1,47.3517 0.17,70.9887 -0.53,15.582 9.69,14.507 18.66,12.871 9.56,-1.735 26.71,9.207 26.61,-11.942 -0.18,-32.273 2.75,-64.6443 -2.46,-96.8396 -1.67,-10.3359 -5.06,-19.8945 -10.39,-28.6562 -19.89,-32.71879 -73.8,-46.57426 -126.9,-32.87895 -39.47,10.17965 -60.16,35.57035 -61.23,78.88675 -1.11,44.16 -0.26,88.352 -0.26,132.531 -0.04,0 -0.07,0 -0.11,0"
         style="fill:#2c302b;fill-opacity:1;fill-rule:evenodd;stroke:#ffffff;stroke-opacity:0.24896266;stroke-width:3.82677175;stroke-dasharray:none;stroke-linejoin:bevel;stroke-linecap:round"
         id="path26" />
      <path
         d="m 1942.59,219.277 c 0.02,41.832 -0.39,83.68 0.11,125.516 0.64,53.91 24.36,81.16 77.31,90.336 23.03,3.996 45.75,2.105 67.85,-4.621 37.43,-11.387 53.71,-39.418 56.03,-76.41 1.44,-22.809 0.04,-45.774 0.91,-68.637 0.77,-19.984 -13.79,-13.199 -22.97,-13.117 -9.07,0.09 -23.72,-7.184 -23.1,12.941 0.67,21.285 0.72,42.649 -0.44,63.914 -1.72,31.805 -18.83,46.188 -53.22,46.496 -36.7,0.321 -55.49,-13.367 -55.89,-45.754 -1.08,-87.597 -1.08,-175.218 0.06,-262.816 0.4,-31.0898 19.79,-45.4062 54.39,-45.3672 34.32,0.0391 52.77,14.668 54.53,45.5938 1.43,25.1874 1.28,50.5274 0.5,75.7504 -0.46,15.375 9.41,15.066 18.51,13.093 9.51,-2.078 27.06,9.77 27.11,-11.215 0.08,-33.054 3.26,-66.273 -3,-99.1987 -2.42,-12.711 -7.1,-24.1329 -15.21,-34.1172 -23.45,-28.88676 -83.2,-39.76176 -130.43,-23.82426 -34.21,11.55076 -51.99,39.54296 -53.03,83.57426 -0.04,1.5781 -0.03,3.1523 -0.03,4.7187 0,41.0552 0,82.1012 0.01,123.1442"
         style="fill:#2c302b;fill-opacity:1;fill-rule:evenodd;stroke:#ffffff;stroke-opacity:0.24896266;stroke-width:3.82677175;stroke-dasharray:none;stroke-linejoin:bevel;stroke-linecap:round"
         id="path28" />
      <path
         d="m 4454.61,219.766 c 0,63.91 0.52,127.812 -0.36,191.707 -0.23,16.558 4.59,21.515 21.2,21.105 44.94,-1.098 89.97,-1.41 134.89,0.11 19.39,0.667 16.87,-10.083 17.39,-22.106 0.54,-12.644 -0.34,-20.754 -17.05,-20.008 -30.71,1.364 -61.54,-0.179 -92.29,0.637 -13.32,0.363 -19.72,-1.57 -19.18,-17.492 1.28,-37.828 1.22,-75.75 0.02,-113.59 -0.47,-15.309 4.82,-18.527 18.8,-17.938 25.2,1.051 50.53,-0.636 75.71,0.59 18.87,0.93 14.59,-11.39 14.97,-21.75 0.42,-10.496 1.85,-20.41 -14.73,-19.625 -25.19,1.168 -50.51,-0.386 -75.72,0.567 -13.57,0.504 -19.51,-1.996 -19.05,-17.672 1.23,-40.211 0.91,-80.481 0.13,-120.6955 -0.26,-13.3438 3.61,-17.8125 17.2,-17.4297 31.53,0.8867 63.17,-0.9375 94.65,0.7305 18.78,1.0039 17.21,-9.1368 17.76,-21.6524 0.57,-13.3633 -1.65,-19.53515 -17.54,-19.1289 -45.72,1.19141 -91.52,1.07031 -137.26,0.05859 -15.4,-0.33593 -20.11,3.75 -19.9,19.50001 0.86,64.6758 0.36,129.3824 0.36,194.0824"
         style="fill:#2c302b;fill-opacity:1;fill-rule:evenodd;stroke:#ffffff;stroke-opacity:0.24896266;stroke-width:3.82677175;stroke-dasharray:none;stroke-linejoin:bevel;stroke-linecap:round"
         id="path30" />
      <path
         d="m 5292.28,95.2695 c 9.14,46.8355 18.34,93.6645 27.37,140.5005 11.48,59.48 22.72,118.988 34.23,178.441 3.01,15.492 27.99,25.609 42.03,17.406 6.78,-3.961 3.36,-9.676 2.34,-14.574 C 5370.92,285.371 5342.89,153.867 5316.59,22 5312.25,0.1875 5298.57,7.35156 5287,6.82813 c -10.69,-0.48829 -21.7,-4.48438 -25.48,14.41797 -26.47,132.6209 -54.5,264.9419 -82.4,397.2809 -2.26,10.719 0.31,13.528 11.11,13.977 19.92,0.828 33.96,1.129 38.63,-26.211 17.77,-103.84 38.89,-207.109 58.76,-310.6094 1.55,-0.125 3.1,-0.2617 4.66,-0.4141"
         style="fill:#2c302b;fill-opacity:1;fill-rule:evenodd;stroke:#ffffff;stroke-opacity:0.24896266;stroke-width:3.82677175;stroke-dasharray:none;stroke-linejoin:bevel;stroke-linecap:round"
         id="path32" />
      <path
         d="m 6205.12,219.098 c 0,63.933 0.79,127.882 -0.48,191.808 -0.36,18.489 5.48,22.16 22.59,21.692 44.18,-1.207 88.45,-1.516 132.59,0.101 20.13,0.735 16.17,-10.926 16.99,-22.469 0.96,-13.046 -0.99,-20.363 -17.33,-19.656 -31.51,1.352 -63.14,-0.058 -94.71,0.606 -12.07,0.265 -16.53,-3.145 -16.29,-15.875 0.74,-39.461 0.66,-78.938 0.03,-118.399 -0.17,-11.801 4.26,-14.847 15.2,-14.597 26.04,0.566 52.16,-0.844 78.13,0.515 17.97,0.953 15.75,-9.761 16,-20.996 0.26,-11.875 0.84,-21.484 -16.54,-20.484 -25.19,1.441 -50.54,-0.344 -75.75,0.648 -13.83,0.555 -17.33,-4.429 -17.07,-17.613 0.75,-40.25 0.81,-80.527 -0.02,-120.7618 -0.28,-13.6719 4.36,-17.7031 17.54,-17.4063 31.56,0.7227 63.18,-0.7539 94.7,0.625 17.21,0.7539 18.63,-7.0546 19.17,-21.039 0.6,-15.6953 -4.4,-19.94924 -19.9,-19.60549 -45.75,1.01562 -91.58,1.08984 -137.34,-0.04688 -15.42,-0.38672 -17.96,4.89847 -17.81,18.75387 0.7,64.7383 0.3,129.4606 0.3,194.1996"
         style="fill:#2c302b;fill-opacity:1;fill-rule:evenodd;stroke:#ffffff;stroke-opacity:0.24896266;stroke-width:3.82677175;stroke-dasharray:none;stroke-linejoin:bevel;stroke-linecap:round"
         id="path34" />
      <path
         d="m 3473.18,430.527 c 1.45,0.504 2.88,1.368 4.36,1.457 38.5,2.164 38.55,2.153 50.07,-34.207 18.22,-57.472 36.39,-114.964 56.35,-178.074 17.53,54.457 33.38,103.656 49.19,152.875 5.05,15.715 10.09,31.426 14.87,47.231 2.55,8.394 6.7,12.254 16.56,12.73 34.16,1.668 34.62,1.617 23.64,-29.758 -22.83,-65.273 -45.26,-130.676 -68.71,-195.718 -9.48,-26.274 -14.81,-52.543 -13.68,-80.684 1.36,-33.8556 -0.96,-67.8829 0.8,-101.6993 1.07,-20.21095 -9.96,-18.75392 -23.1,-18.23048 -11.42,0.45703 -24.64,-3.55859 -21.69,16.71098 18.43,126.5698 -32.96,238.9528 -72.54,353.7108 -5.64,16.336 -11.26,32.66 -16.73,49.039 -0.45,1.32 0.36,3.067 0.61,4.617"
         style="fill:#2c302b;fill-opacity:1;fill-rule:evenodd;stroke:#ffffff;stroke-opacity:0.24896266;stroke-width:3.82677175;stroke-dasharray:none;stroke-linejoin:bevel;stroke-linecap:round"
         id="path36" />
      <path
         d="m 1245.73,220.109 c 0,64.637 0.43,129.286 -0.34,193.907 -0.17,14.543 3.83,18.843 18.51,18.523 44.9,-0.945 89.88,-1.406 134.76,0.16 19.36,0.664 16.99,-9.933 17.37,-22 0.38,-12.265 0.29,-20.933 -16.78,-20.133 -30.68,1.43 -61.48,-0.238 -92.2,0.684 -13.74,0.418 -17.4,-4.367 -17.16,-17.523 0.72,-39.407 0.79,-78.836 -0.03,-118.219 -0.28,-13.574 4.03,-17.637 17.39,-17.11 25.18,0.981 50.48,-0.691 75.64,0.618 17.25,0.89 14.31,-9.813 14.06,-19.668 -0.23,-9.438 3.98,-21.141 -13.6,-20.352 -23.6,1.07 -47.35,-0.867 -70.91,0.621 -17.49,1.094 -23.17,-3.937 -22.72,-22.097 1.24,-51.2 -0.65,-102.4887 0.94,-153.6762 0.67,-21.56255 -12.13,-16.82817 -23.98,-17.3438 -12.39,-0.54297 -21.89,-1.625 -21.49,17.3672 1.39,65.3906 0.54,130.8238 0.54,196.2418"
         style="fill:#2c302b;fill-opacity:1;fill-rule:evenodd;stroke:#ffffff;stroke-opacity:0.24896266;stroke-width:3.82677175;stroke-dasharray:none;stroke-linejoin:bevel;stroke-linecap:round"
         id="path38" />
      <path
         d="m 2578.67,220.883 c 0,62.355 0.4,124.699 -0.28,187.039 -0.16,16.519 1.25,25.195 22.26,25.242 21.6,0.051 23.55,-8.195 23.43,-26.176 -0.72,-112.843 -0.05,-225.695 -0.72,-338.5349 -0.11,-15.9961 3.11,-22.164 20.41,-21.2422 28.34,1.5313 56.82,-0.3554 85.2,0.6875 18.71,0.6836 14.89,-11.6679 14.96,-22.1015 0.08,-9.7305 3.35,-20.16799 -14.24,-19.6719 -44.94,1.25781 -89.98,1.01953 -134.92,0.06641 -14.83,-0.32422 -16.39,6.05469 -16.31,18.21089 0.44,65.4922 0.21,130.9927 0.21,196.4807"
         style="fill:#2c302b;fill-opacity:1;fill-rule:evenodd;stroke:#ffffff;stroke-opacity:0.24896266;stroke-width:3.82677175;stroke-dasharray:none;stroke-linejoin:bevel;stroke-linecap:round"
         id="path40" />
      <path
         d="m 3206.71,200.973 c 0,55.156 -1.31,110.371 0.64,165.461 0.78,22.05 -6.58,27.445 -26.23,24.726 -8.49,-1.18 -17.53,1.086 -25.92,-0.437 -24.16,-4.368 -27.18,8.562 -25.71,27.933 0.75,9.867 3.39,13.785 13.76,13.715 57.52,-0.363 115.05,-0.527 172.57,0.027 17.69,0.161 12.99,-11.832 13.2,-21.074 0.23,-9.617 3.64,-22.199 -13.7,-20.39 -2.34,0.246 -4.75,0.238 -7.09,0 -18.5,-1.864 -43.07,8.613 -53.89,-4.606 -9.05,-11.043 -3.36,-34.543 -3.39,-52.539 -0.17,-102.445 -0.8,-204.902 0.51,-307.332 0.27,-20.73825 -9.16,-19.77731 -23.74,-20.34372 -15.44,-0.61719 -21.86,2.14063 -21.48,19.90622 1.24,58.2969 0.46,116.6325 0.47,174.9535"
         style="fill:#2c302b;fill-opacity:1;fill-rule:evenodd;stroke:#ffffff;stroke-opacity:0.24896266;stroke-width:3.82677175;stroke-dasharray:none;stroke-linejoin:bevel;stroke-linecap:round"
         id="path42" />
      <path
         d="m 2336.62,219.773 c 0,63.852 0.79,127.719 -0.49,191.543 -0.39,19.348 7.35,21.301 23.48,21.465 16.53,0.157 23.15,-2.551 23,-21.566 -0.94,-128.469 -0.9,-256.961 -0.03,-385.4533 0.13,-18.26561 -7.01,-20.39061 -21.95,-19.52732 -13.63,0.78125 -25.14,-2.09375 -24.59,19.64452 1.61,64.5977 0.57,129.2581 0.58,193.8941"
         style="fill:#2c302b;fill-opacity:1;fill-rule:evenodd;stroke:#ffffff;stroke-opacity:0.24896266;stroke-width:3.82677175;stroke-dasharray:none;stroke-linejoin:bevel;stroke-linecap:round"
         id="path44" />
      <path
         d="m 2960.2,219.348 c 0,-64.618 -0.82,-129.2386 0.51,-193.8246 0.39,-18.84371 -7.69,-19.68746 -22.15,-19.33199 -14.33,0.36718 -24.32,-0.90235 -24.13,20.10549 1.13,128.4141 1.02,256.8631 0.08,385.2851 -0.14,19.656 8,20.68 23.69,21.219 17.35,0.57 22.81,-3.774 22.46,-21.992 -1.21,-63.805 -0.46,-127.637 -0.46,-191.461"
         style="fill:#2c302b;fill-opacity:1;fill-rule:evenodd;stroke:#ffffff;stroke-opacity:0.24896266;stroke-width:3.82677175;stroke-dasharray:none;stroke-linejoin:bevel;stroke-linecap:round"
         id="path46" />
      <path
         d="m 5617.85,217.324 c 0,-63.07 -0.7,-126.1717 0.45,-189.2224 0.33,-17.5782 -3.9,-23.05863 -21.86,-22.14457 -15.41,0.76953 -23.38,1.16016 -23.21,20.98437 1.07,127.7386 1.08,255.4766 0.01,383.2036 -0.18,20.507 7.81,21.699 24.51,22.742 20.7,1.301 20.43,-9.09 20.31,-23.953 -0.49,-63.875 -0.21,-127.735 -0.21,-191.61"
         style="fill:#2c302b;fill-opacity:1;fill-rule:evenodd;stroke:#ffffff;stroke-opacity:0.24896266;stroke-width:3.82677175;stroke-dasharray:none;stroke-linejoin:bevel;stroke-linecap:round"
         id="path48" />
      <path
         d="m 7403.87,1188.81 c -80.47,0 -160.96,0.22 -241.42,-0.2 -13.52,-0.07 -20.47,0.5 -13.99,17.3 47.56,123.21 94.42,246.68 141.44,370.1 1.42,3.76 2.42,7.53 7.87,9.58 44.89,-118 89.81,-235.98 134.68,-353.99 16.25,-42.76 16.18,-42.79 -28.58,-42.79 z m 577.65,-486.298 c -175.54,418.478 -351.22,836.898 -526.31,1255.558 -5.91,14.14 -14.21,15.78 -26.98,15.72 -83.64,-0.36 -167.32,-0.79 -250.96,0.3 -17.85,0.23 -25.94,-5.27 -32.79,-21.6 -168.76,-403.43 -338.18,-806.59 -507.19,-1209.912 -7.16,-17.105 -16.66,-33.578 -19.92,-53.762 108.49,0 215.77,0.243 323.02,-0.316 13.63,-0.07 14.68,9.063 17.94,17.406 30.96,79.086 62.1,158.11 92.44,237.43 5.36,13.996 10.96,20.582 28.09,20.473 144.42,-0.981 288.85,-0.922 433.27,-0.079 16.67,0.094 23.2,-5.894 28.76,-20.171 31.13,-79.86 63.2,-159.364 94.67,-239.102 3.64,-9.23 6.46,-16.016 19.07,-15.965 109.67,0.535 219.36,0.317 331.7,0.317 -2.27,6.484 -3.35,10.179 -4.81,13.703"
         style="fill:#2c302b;fill-opacity:1;fill-rule:evenodd;stroke:#ffffff;stroke-opacity:0.24896266;stroke-width:3.82677175;stroke-dasharray:none;stroke-linejoin:bevel;stroke-linecap:round"
         id="path54" />
      <path
         d="m 1824.05,1188.48 c -86.82,0.75 -173.66,0.63 -260.48,0.08 -16.31,-0.1 -22.75,1.34 -15.4,20.33 48.56,125.41 96.03,251.23 145.85,382.13 19.3,-50.79 36.84,-97.01 54.42,-143.21 30.19,-79.4 59.77,-159.05 91.06,-238 7.72,-19.48 2.66,-21.48 -15.45,-21.33 z m 555.38,-485.066 c -175.35,417.886 -350.82,835.716 -525.77,1253.756 -5.63,13.44 -12.82,16.78 -26.3,16.71 -84.47,-0.54 -168.95,-0.83 -253.42,0.19 -17.22,0.21 -24.17,-5.86 -30.55,-21.12 -150.65,-359.98 -301.9,-719.72 -452.98,-1079.52 -25.5,-60.746 -50.75,-121.625 -77.03,-184.621 109.93,0 217.14,0.312 324.33,-0.36 14.92,-0.097 16.13,9.946 19.63,18.895 30.97,79.113 62,158.219 92.21,237.621 5.25,13.805 11.98,18.746 27.22,18.676 145.27,-0.664 290.53,-0.618 435.8,-0.059 13.98,0.051 20.33,-4.176 25.4,-17.246 31.03,-79.926 63.35,-159.371 94.48,-239.258 5.32,-13.637 11.98,-18.805 27.28,-18.687 102.63,0.793 205.26,0.367 307.9,0.554 4.88,0.012 10.92,-2.707 15.53,4.02 -1.15,3.258 -2.25,6.933 -3.73,10.449"
         style="fill:#2c302b;fill-opacity:1;fill-rule:evenodd;stroke:#ffffff;stroke-opacity:0.24896266;stroke-width:3.82677175;stroke-dasharray:none;stroke-linejoin:bevel;stroke-linecap:round"
         id="path56" />
      <path
         d="m 6416,1469.14 c -19.61,-72.27 -70.36,-109.37 -141.41,-121.76 -53.97,-9.42 -108.64,-3.38 -162.96,-5.21 -14.35,-0.47 -12.06,8.62 -12.06,17.04 -0.03,62.33 -0.02,124.66 -0.02,186.97 0,59.97 -0.12,119.92 0.15,179.88 0.03,7.62 -4.1,18.84 10.64,18.54 56.7,-1.14 113.74,4.5 169.95,-6.47 78.91,-15.41 127.21,-62.02 140.35,-142.42 6.93,-42.39 6.69,-84.85 -4.64,-126.57 z m 274.16,337.92 c -85.16,113.53 -205.78,160.32 -341.67,164.05 -190.86,5.23 -381.95,1.78 -572.93,2.93 -19.47,0.12 -24.83,-4.7 -24.76,-24.56 0.78,-205.99 0.49,-411.99 0.49,-617.98 0,-205.2 0.25,-410.41 -0.42,-615.613 -0.07,-20.231 3.15,-28.071 26.2,-27.723 99.43,1.5 198.89,1.188 298.32,0.168 19.57,-0.211 24.8,4.781 24.66,24.586 -0.98,126.277 -0.2,252.559 -0.88,378.832 -0.08,16.64 4.51,21.01 21.05,21 79.69,-0.04 159.48,-3.4 239.05,2.56 100.31,7.52 193.92,35.15 271.98,101.57 99.39,84.59 137.91,196.24 138.93,323.53 0.78,97.11 -20.96,187.91 -80.02,266.65"
         style="fill:#2c302b;fill-opacity:1;fill-rule:evenodd;stroke:#ffffff;stroke-opacity:0.24896266;stroke-width:3.82677175;stroke-dasharray:none;stroke-linejoin:bevel;stroke-linecap:round"
         id="path58" />
      <path
         d="m 4922.79,225.508 c -18.76,-1.606 -37.74,-0.367 -56.58,-1.192 -10.05,-0.445 -11.55,4.399 -11.42,12.801 0.36,23.598 0.12,47.196 0.12,70.789 0.01,22.817 0.5,45.633 -0.21,68.41 -0.35,11.024 2.73,15.516 14.39,14.864 16.47,-0.942 33.04,0.097 49.53,-0.563 29.17,-1.183 43.81,-12.972 48.1,-41.594 4.09,-27.222 3.51,-54.878 0.07,-82.253 -3.22,-25.563 -19.22,-39.129 -44,-41.262 z m 99.69,-205.5275 c -19.04,51.6133 -38.26,103.1835 -57.03,154.8905 -2.83,7.781 -9.78,15.641 5.09,22.297 28.73,12.859 40.94,38.09 41.49,68.766 0.52,29.171 1.01,58.398 -0.3,87.523 -1.85,41.141 -25.03,66.824 -65.55,74.875 -39.1,7.762 -78.71,1.766 -117.98,4.117 -14.9,0.895 -18.61,-4.633 -18.56,-18.793 0.45,-130.148 0.72,-260.297 -0.18,-390.4451 -0.15,-22.226525 13.47,-15.72652 24.78,-16.68356 12.94,-1.07421 21.9,-0.67187 21.18,17.73436 -1.63,40.9571 -0.52,82.0233 -0.52,123.0233 0.01,38.235 0.05,37.125 38.44,38.653 18.3,0.722 25.95,-5.692 31.47,-22.547 13.19,-40.305 28.56,-79.9066 43.06,-119.7972 13.92,-38.35161 13.93,-38.3438 58.55,-36.01958 -1.64,5.19138 -2.63,8.86328 -3.94,12.40628"
         style="fill:#2c302b;fill-opacity:1;fill-rule:evenodd;stroke:#ffffff;stroke-opacity:0.24896266;stroke-width:3.82677175;stroke-dasharray:none;stroke-linejoin:bevel;stroke-linecap:round"
         id="path60" />
      <path
         d="m 1687.57,149.566 c -23.39,0.778 -46.83,0.219 -72.15,0.219 14.13,70.266 27.82,138.324 41.51,206.367 1.48,-0.109 2.97,-0.207 4.46,-0.324 12.88,-63.523 25.7,-127.062 38.68,-190.562 2.16,-10.567 0.18,-16.125 -12.5,-15.7 z m 87.14,-128.3785 c -28.46,131.5195 -56.91,263.0315 -84.39,394.7615 -5.3,25.442 -23.48,13.864 -36.94,16.137 -13.22,2.223 -21.55,-1.176 -24.24,-17.109 -5.75,-34.122 -13.74,-67.864 -20.89,-101.747 -21.44,-101.507 -42.91,-203.003 -64.41,-304.605 41.8,-5.35156 40.65,-5.05469 50.02,30.3672 6.38,24.0508 -1.08,58.9648 21.77,69.6248 22.05,10.293 52.66,1.52 79.43,2.707 12.44,0.559 16.74,-4.64 18.65,-15.3474 3.59,-20.1446 9.09,-40.0782 11.02,-60.3633 2.35,-24.6953 13.6,-32.96096 37.95,-29.63674 11.64,1.58203 14.52,3.69141 12.03,15.21094"
         style="fill:#2c302b;fill-opacity:1;fill-rule:evenodd;stroke:#ffffff;stroke-opacity:0.24896266;stroke-width:3.82677175;stroke-dasharray:none;stroke-linejoin:bevel;stroke-linecap:round"
         id="path62" />
      <path
         d="m 7878.14,2026.81 c 65.72,0 119.02,-53.29 119.02,-119.01 0,-65.72 -53.3,-119.01 -119.02,-119.01 -65.71,0 -119.01,53.29 -119.01,119.01 0,65.72 53.3,119.01 119.01,119.01 z m 0,-21.44 c 53.88,0 97.57,-43.69 97.57,-97.57 0,-53.87 -43.69,-97.57 -97.57,-97.57 -53.87,0 -97.57,43.7 -97.57,97.57 0,53.88 43.7,97.57 97.57,97.57 z m -55.75,-159.57 v 124 h 52.72 c 13.25,0 22.86,-1.12 28.87,-3.35 6.01,-2.22 10.83,-6.18 14.43,-11.86 3.62,-5.72 5.4,-12.21 5.4,-19.55 0,-9.3 -2.74,-17 -8.19,-23.06 -5.46,-6.04 -13.66,-9.88 -24.54,-11.44 5.42,-3.18 9.9,-6.64 13.42,-10.42 3.52,-3.78 8.26,-10.48 14.23,-20.12 l 15.16,-24.2 h -29.94 l -18.1,27 c -6.44,9.64 -10.83,15.7 -13.19,18.22 -2.37,2.5 -4.88,4.21 -7.54,5.16 -2.66,0.93 -6.84,1.39 -12.61,1.39 h -5.06 v -51.77 z m 25.06,71.57 h 18.51 c 12.01,0 19.52,0.49 22.52,1.51 2.97,1 5.31,2.76 7.01,5.25 1.67,2.48 2.54,5.57 2.54,9.3 0,4.18 -1.12,7.53 -3.35,10.1 -2.22,2.57 -5.36,4.18 -9.44,4.88 -2.02,0.26 -8.11,0.4 -18.27,0.4 h -19.52 v -31.44"
         style="fill:#2c302b;fill-opacity:1;fill-rule:evenodd;stroke:#ffffff;stroke-opacity:0.24896266;stroke-width:3.82677175;stroke-dasharray:none;stroke-linejoin:bevel;stroke-linecap:round"
         id="path64" />
    </g>
  </g>
</svg>
