<?xml version="1.0" encoding="UTF-8"?>
<svg xmlns="http://www.w3.org/2000/svg" version="1.1" viewBox="0 0 1074.2 662" xml:space="preserve">
<style type="text/css">
	
		.st0{fill-rule:evenodd;clip-rule:evenodd;fill:#2C302B;stroke:#FFFFFF;stroke-width:9;stroke-linecap:round;stroke-linejoin:round;stroke-miterlimit:10;}
	
		.st1{fill-rule:evenodd;clip-rule:evenodd;fill:#006575;stroke:#FFFFFF;stroke-width:9;stroke-linecap:round;stroke-linejoin:round;stroke-miterlimit:10;}
	.st2{fill-rule:evenodd;clip-rule:evenodd;fill:#2C302B;}
	.st3{fill-rule:evenodd;clip-rule:evenodd;fill:#006575;}
</style>
<switch stroke="#ffffff" stroke-linecap="round" stroke-linejoin="round" stroke-opacity=".49793">
	
	<g stroke="#fff" stroke-linecap="round" stroke-linejoin="round" stroke-opacity=".49793">
		
			
		<g stroke="#fff" stroke-linecap="round" stroke-linejoin="round" stroke-opacity=".49793">
			<path class="st0" d="m588.1 459.6c1.6 34.6 0.3 69.2 0.7 103.9 0 1.9-0.7 2.2-2.4 2.2-11.7-0.1-23.4-0.1-35 0-2 0-2.4-0.6-2.4-2.5 0-55.5 0.1-110.9 0-166.4 0-1.9 0.4-2.5 2.4-2.5 15.7 0.1 31.4 0.1 47 0 2.2 0 2.8 1.1 3.5 2.7 14.5 34.1 29.1 68.1 43.7 102.2 0.5 1.1 0.9 2.1 1.6 3.6 3-6.9 5.7-13.3 8.5-19.8 12.2-28.6 24.5-57.3 36.7-86 0.9-2.1 2-2.7 4.2-2.7 14.8 0.1 29.7 0.1 44.5 0 2.3 0 3.2 0.4 3.2 3-0.1 55.2-0.1 110.3 0 165.5 0 2.4-0.6 3-2.9 2.9-11.7-0.1-23.4-0.1-35.1 0-2.2 0-3.1-0.3-3.1-2.8 0.1-30.2 0-60.4 0.1-90.6 0-4 0.4-8 0.6-12 0.6-1.1 0-2.3 0.2-3.6-0.3 0.5-0.5 0.9-0.9 1.2-6 19.1-14.4 37.1-21.9 55.6-6.7 16.6-13.7 33.1-20.5 49.7-0.8 2-1.7 2.7-3.8 2.6-7.5-0.2-14.9-0.1-22.4 0-1.5 0-2.4-0.1-3.1-1.8-13.6-33.6-28.1-66.8-41-100.7-0.7-1.8-1.2-3.6-1.8-5.4-0.2-0.2-0.3-0.7-0.5-0.7-0.4-0.1-0.2 0.4-0.3 0.6 0 0.5-0.1 1.2 0.2 1.8"></path>
			<path class="st0" d="m118.1 438.7c-9.2-5.5-18.6-9.7-28.8-12.3-8.9-2.2-18-3.7-27.1-1.5-8.7 2.1-13 8.6-10.9 16.2 1 3.8 3.7 6 6.9 7.8 5.9 3.2 12.3 4.8 18.7 6.4 10.6 2.6 21 5.9 30.7 11.1 22.8 12.3 30.3 31.5 27.3 56-2.9 23.4-17.3 37.2-39.1 43-31.8 8.4-61.6 3.5-88.7-15.9-2.6-1.9-3.1-3.5-2.1-6.5 3.3-9.7 6.1-19.6 9.2-29.9 1.1 0.9 1.9 1.5 2.8 2.2 12.2 9.8 25.5 17.3 41.3 19.8 8.1 1.3 16.1 1.4 23.9-1.6 8.4-3.3 12.1-10.1 10.3-18.9-0.8-4.1-3.4-6.9-6.9-8.9-7.4-4.2-15.6-6.2-23.7-8.3-10.5-2.7-20.7-6.1-30-11.8-29.7-18-30.1-61.8-7-80.7 9.1-7.5 19.6-11.7 31.1-13.4 24.7-3.7 47.6 1.3 68.9 14.3 2.1 1.3 2.7 2.5 1.9 5-3.1 9.2-5.8 18.5-8.7 27.9"></path>
			<path class="st0" d="m339.3 480c0-27.5 0-54.9-0.1-82.4 0-2.6 0.6-3.3 3.3-3.3 13.3 0.1 26.5 0.1 39.8 0 2.6 0 3.3 0.5 3.3 3.2-0.1 43.1 0 86.3-0.1 129.4 0 3.2 0.8 4 3.9 3.9 21.9-0.2 43.8 0 65.7-0.1 2.6 0 3.3 0.7 3.3 3.3-0.2 9.7-0.1 19.4 0 29 0 2-0.4 2.7-2.6 2.7-38-0.1-76-0.1-114 0-2.7 0-2.4-1.3-2.4-3.1-0.1-27.5-0.1-55.1-0.1-82.6"></path>
			<path class="st0" d="m523.3 480.1c0 27.5 0 54.9 0.1 82.4 0 2.7-0.7 3.3-3.3 3.2-13.4-0.1-26.7-0.1-40.1 0-2.3 0-2.9-0.5-2.9-2.9 0.1-55.1 0.1-110.3 0-165.4 0-2.5 0.7-3.1 3.1-3.1 13.4 0.1 26.7 0.1 40.1 0 2.4 0 3.1 0.6 3.1 3.1-0.2 27.6-0.1 55.1-0.1 82.7"></path>
			<path class="st0" d="m876.3 642.1c0-0.9 0.1-1.9 0-2.8-0.4-2.6 0.6-3.4 3.3-3.3 2.2 0.1 2.9 0.7 2.8 2.9-0.1 2.5-0.1 5.1 0.1 7.6 0.3 3.7 2.6 5.5 6.6 5.7 4.2 0.2 6.7-1.6 7.4-5.2 0.5-2.7 0.4-5.5 0.2-8.2-0.2-2.5-1.6-4.3-3.8-5.5-3.6-2-7.1-4.1-10.7-6-4.2-2.3-6.3-5.7-6-10.6 0.2-2.9-0.2-5.9 0.5-8.8 0.9-3.7 3-6.2 6.5-7.4 4.1-1.5 8.2-1.4 12.4 0 4.7 1.6 6.6 5.3 6.9 9.9 0.2 2.5 0 5.1 0.1 7.6 0.2 2.8-1.8 2-3.2 2-1.5 0.1-3 0.4-2.9-2.1s0.1-5.1-0.1-7.6c-0.3-3.8-2.6-5.5-7-5.6-4.4 0-6.6 1.7-7 5.5-0.1 0.5 0 1.1-0.1 1.6-1 6.1 1 10.3 7 12.7 3.1 1.2 5.9 3.2 8.7 5 3.2 2.1 4.8 5.2 4.6 9.1-0.1 3.4 0.3 6.7-0.3 10.1-0.2 0.9-0.5 1.8-0.8 2.7-2.1 4.7-7.6 6.8-15.4 5.8-5.5-0.7-8.5-3.4-9.5-8.5-0.3-2.2-0.2-4.4-0.3-6.6"></path>
			<path class="st0" d="m546.3 642.5c0-1.2 0.1-2.3 0-3.5-0.3-2.5 0.6-3.2 3.1-3.2 2.2 0 3 0.6 2.8 2.8-0.2 2.3-0.1 4.6 0 6.9 0.3 4.1 2.5 6.2 6.7 6.4 4.3 0.2 7.1-1.8 7.6-5.8 0.3-2.6 0.2-5.3 0.1-7.9-0.2-2.5-1.9-4.1-4-5.3-3.6-2-7.1-4-10.7-6-3.9-2.2-6-5.5-5.7-10.1 0.1-2 0-4 0-6 0-1.5 0.1-2.9 0.6-4.3 1.9-5.3 7.6-8.1 14.6-7.2 6.8 0.9 10.6 4.5 10.8 10.6 0.1 2.6-0.1 5.3 0.1 7.9 0.2 2.8-1.8 1.9-3.1 2.1-1.6 0.2-2.8 0.1-2.7-2.2 0.2-2.6 0.2-5.3-0.3-7.9-0.8-3.8-2.7-5.2-7.1-5.1-4.2 0-6.5 1.7-6.9 5.3-0.3 2.6-0.2 5.3 0 7.9 0.1 2.2 1.8 3.5 3.5 4.5l10.2 5.7c4.5 2.5 7 6.2 6.6 11.6-0.2 2.5 0 5.1-0.1 7.6-0.3 5.1-2.8 8.2-7.7 9.5-3.1 0.8-6.3 0.8-9.4 0.3-5.8-1-8.6-4.2-8.9-10.1-0.1-1.5 0-3-0.1-4.5 0.1 0 0.1 0 0 0"></path>
			<path class="st0" d="m778.4 628.6v-16.7c0-7.5 3.3-11.3 10.6-12.4 3-0.5 5.9-0.2 8.7 0.7 4.1 1.3 6.5 4.1 7.2 8.3 0.6 3.7 0.2 7.3 0.3 11 0.1 2.9-2.1 1.6-3.4 1.7-1.3 0.2-2.8 0.5-2.7-1.8 0.2-2.6 0.1-5.3 0-7.9-0.2-4.7-2.4-6.7-7.2-6.8-5 0-7.3 1.8-7.4 6.5-0.1 11.4-0.1 22.7 0 34.1 0.1 4.7 2.4 6.7 7.3 6.6 4.8 0 7.1-2.1 7.3-6.7 0.1-3.2 0.1-6.3 0-9.5-0.1-2.1 1.3-1.9 2.5-1.7 1.3 0.2 3.6-1.2 3.5 1.6 0 4.3 0.4 8.6-0.3 12.9-0.2 1.4-0.7 2.7-1.4 3.8-2.7 4.4-9.8 6.2-16.9 4.4-5.3-1.4-8-4.7-8.2-10.5 0-5.9 0.1-11.8 0.1-17.6"></path>
			
				<path class="st0" d="m262.4 628.3c0-5.6-0.1-11.2 0-16.7 0.1-7.2 3.2-10.8 10.3-12 3.1-0.5 6.1-0.3 9 0.6 5 1.5 7.2 5.3 7.5 10.2 0.2 3 0 6.1 0.1 9.2 0.1 2.7-1.8 1.8-3.1 1.7-1.2 0-3.2 1-3.1-1.7 0.1-2.8 0.1-5.7-0.1-8.5-0.2-4.2-2.5-6.2-7.1-6.2-4.9 0-7.4 1.8-7.5 6.1-0.1 11.7-0.1 23.4 0 35 0.1 4.1 2.6 6.1 7.3 6 4.6 0 7-2 7.3-6.1 0.2-3.4 0.2-6.7 0.1-10.1-0.1-2.1 1.3-2 2.5-1.7 1.3 0.3 3.6-1.3 3.6 1.5 0 4.4 0.4 8.8-0.4 13.2-0.3 1.7-0.9 3.2-2 4.5-3.1 3.9-11.1 5.3-17.4 3.2-4.6-1.5-6.9-5.3-7.1-11.1v-0.6c0.1-5.6 0.1-11 0.1-16.5" stroke="#fff" stroke-linecap="round" stroke-linejoin="round" stroke-opacity=".49793"></path>
			
			<path class="st0" d="m597.3 628.2c0-8.5 0.1-17 0-25.6 0-2.2 0.6-2.9 2.8-2.8 6 0.1 12 0.2 18 0 2.6-0.1 2.2 1.3 2.3 2.9 0.1 1.7 0 2.8-2.3 2.7-4.1-0.2-8.2 0-12.3-0.1-1.8 0-2.6 0.2-2.6 2.3 0.2 5 0.2 10.1 0 15.1-0.1 2 0.6 2.5 2.5 2.4 3.4-0.1 6.7 0.1 10.1-0.1 2.5-0.1 1.9 1.5 2 2.9s0.2 2.7-2 2.6c-3.4-0.2-6.7 0.1-10.1-0.1-1.8-0.1-2.6 0.3-2.5 2.4 0.2 5.4 0.1 10.7 0 16.1 0 1.8 0.5 2.4 2.3 2.3 4.2-0.1 8.4 0.1 12.6-0.1 2.5-0.1 2.3 1.2 2.4 2.9 0.1 1.8-0.2 2.6-2.3 2.6-6.1-0.2-12.2-0.1-18.3 0-2.1 0-2.7-0.5-2.7-2.6 0.2-8.5 0.1-17.1 0.1-25.8"></path>
			<path class="st0" d="m709 644.8c1.2-6.2 2.4-12.5 3.6-18.7 1.5-7.9 3-15.9 4.6-23.8 0.4-2.1 3.7-3.4 5.6-2.3 0.9 0.5 0.4 1.3 0.3 1.9-3.6 17.6-7.4 35.1-10.9 52.7-0.6 2.9-2.4 2-3.9 2-1.4 0.1-2.9 0.6-3.4-1.9-3.5-17.7-7.3-35.3-11-53-0.3-1.4 0-1.8 1.5-1.9 2.7-0.1 4.5-0.2 5.2 3.5 2.4 13.8 5.2 27.6 7.8 41.4 0.2 0.1 0.4 0.1 0.6 0.1"></path>
			<path class="st0" d="m830.7 628.3c0-8.5 0.1-17.1-0.1-25.6 0-2.5 0.7-3 3-2.9 5.9 0.2 11.8 0.2 17.7 0 2.7-0.1 2.2 1.5 2.3 3 0.1 1.7-0.1 2.7-2.3 2.6-4.2-0.2-8.4 0-12.6-0.1-1.6 0-2.2 0.4-2.2 2.1 0.1 5.3 0.1 10.5 0 15.8 0 1.6 0.6 2 2 1.9 3.5-0.1 7 0.1 10.4-0.1 2.4-0.1 2.1 1.3 2.1 2.8 0 1.6 0.1 2.9-2.2 2.7-3.4-0.2-6.7 0-10.1-0.1-1.8-0.1-2.3 0.6-2.3 2.3 0.1 5.4 0.1 10.7 0 16.1 0 1.8 0.6 2.4 2.3 2.3 4.2-0.1 8.4 0.1 12.6-0.1 2.3-0.1 2.5 0.9 2.6 2.8 0.1 2.1-0.6 2.7-2.7 2.6-6.1-0.1-12.2-0.1-18.3 0-2.1 0.1-2.4-0.7-2.4-2.5 0.3-8.3 0.2-17 0.2-25.6"></path>
			<path class="st0" d="m466.5 600.1c0.2-0.1 0.4-0.2 0.6-0.2 5.1-0.3 5.1-0.3 6.7 4.6 2.4 7.7 4.9 15.3 7.5 23.7 2.3-7.3 4.5-13.8 6.6-20.4 0.7-2.1 1.3-4.2 2-6.3 0.3-1.1 0.9-1.6 2.2-1.7 4.6-0.2 4.6-0.2 3.2 4-3 8.7-6 17.4-9.2 26.1-1.3 3.5-2 7-1.8 10.8 0.2 4.5-0.1 9.1 0.1 13.6 0.1 2.7-1.3 2.5-3.1 2.4-1.5-0.1-3.3 0.5-2.9-2.2 2.5-16.9-4.4-31.9-9.7-47.2-0.8-2.2-1.5-4.4-2.2-6.5-0.2-0.2-0.1-0.5 0-0.7"></path>
			
				<path class="st0" d="m169.5 628.2c0-8.6 0.1-17.2 0-25.9 0-1.9 0.5-2.5 2.5-2.5 6 0.1 12 0.2 18 0 2.6-0.1 2.3 1.3 2.3 2.9 0.1 1.6 0 2.8-2.2 2.7-4.1-0.2-8.2 0-12.3-0.1-1.8-0.1-2.3 0.6-2.3 2.3 0.1 5.3 0.1 10.5 0 15.8 0 1.8 0.5 2.4 2.3 2.3 3.4-0.1 6.7 0.1 10.1-0.1 2.3-0.1 1.9 1.3 1.9 2.6s0.5 2.8-1.8 2.7c-3.1-0.1-6.3 0.1-9.5-0.1-2.3-0.1-3.1 0.5-3 2.9 0.2 6.8-0.1 13.7 0.1 20.5 0.1 2.9-1.6 2.2-3.2 2.3-1.7 0.1-2.9 0.2-2.9-2.3 0.1-8.6 0-17.3 0-26"></path>
			
			
				<path class="st0" d="m347.2 628.1c0-8.3 0.1-16.6 0-24.9 0-2.2 0.2-3.4 3-3.4 2.9 0 3.1 1.1 3.1 3.5-0.1 15 0 30.1-0.1 45.1 0 2.1 0.4 3 2.7 2.8 3.8-0.2 7.6 0 11.4-0.1 2.5-0.1 2 1.6 2 2.9s0.4 2.7-1.9 2.6c-6-0.2-12-0.1-18 0-2 0-2.2-0.8-2.2-2.4v-26.1"></path>
			
			<path class="st0" d="m430.9 630.7c0-7.4-0.2-14.7 0.1-22.1 0.1-2.9-0.9-3.7-3.5-3.3-1.1 0.2-2.3-0.1-3.5 0.1-3.2 0.6-3.6-1.1-3.4-3.7 0.1-1.3 0.5-1.8 1.8-1.8 7.7 0 15.3 0.1 23 0 2.4 0 1.7 1.6 1.8 2.8 0 1.3 0.5 3-1.8 2.7h-0.9c-2.5 0.2-5.7-1.1-7.2 0.6-1.2 1.5-0.4 4.6-0.5 7 0 13.7-0.1 27.3 0.1 41 0 2.8-1.2 2.6-3.2 2.7-2.1 0.1-2.9-0.3-2.9-2.7 0.3-7.7 0.1-15.5 0.1-23.3"></path>
			
				<path class="st0" d="m314.9 628.2c0-8.5 0.1-17-0.1-25.5-0.1-2.6 1-2.8 3.1-2.9 2.2 0 3.1 0.3 3.1 2.9-0.1 17.1-0.1 34.3 0 51.4 0 2.4-0.9 2.7-2.9 2.6-1.8-0.1-3.4 0.3-3.3-2.6 0.3-8.6 0.1-17.3 0.1-25.9"></path>
			
			
				<path class="st0" d="m398.1 628.3c0 8.6-0.1 17.2 0.1 25.8 0.1 2.5-1 2.6-3 2.6-1.9 0-3.2 0.1-3.2-2.7 0.2-17.1 0.1-34.2 0-51.4 0-2.6 1.1-2.8 3.2-2.8 2.3-0.1 3 0.5 3 2.9-0.2 8.6-0.1 17.1-0.1 25.6"></path>
			
			<path class="st0" d="m752.4 628.6c0 8.4-0.1 16.8 0.1 25.2 0 2.3-0.5 3.1-2.9 3-2.1-0.1-3.1-0.2-3.1-2.8 0.1-17 0.1-34.1 0-51.1 0-2.7 1-2.9 3.3-3 2.8-0.2 2.7 1.2 2.7 3.2-0.1 8.4-0.1 16.9-0.1 25.5"></path>
			<path class="st0" d="m246.6 499.1c-11.6-0.1-23.2-0.1-34.7 0-2.2 0-3-0.2-2.1-2.7 6.5-16.7 12.8-33.5 19.4-51 2.6 6.8 4.9 12.9 7.3 19.1 4 10.6 8 21.2 12.1 31.7 1.1 2.6 0.4 2.9-2 2.9zm74 64.6c-23.4-55.7-46.8-111.4-70.1-167.2-0.8-1.8-1.7-2.2-3.5-2.2-11.3 0.1-22.5 0.1-33.8 0-2.3 0-3.2 0.8-4.1 2.8-20.1 48-40.3 96-60.4 143.9-3.4 8.1-6.8 16.2-10.3 24.6h43.2c2 0 2.2-1.3 2.6-2.5 4.1-10.5 8.3-21.1 12.3-31.7 0.7-1.8 1.6-2.5 3.6-2.5 19.4 0.1 38.7 0.1 58.1 0 1.9 0 2.7 0.6 3.4 2.3 4.1 10.7 8.4 21.2 12.6 31.9 0.7 1.8 1.6 2.5 3.6 2.5 13.7-0.1 27.4 0 41.1-0.1 0.7 0 1.5 0.4 2.1-0.5 0-0.3-0.2-0.8-0.4-1.3"></path>
			<path class="st0" d="m858.9 461.6c-2.6 9.6-9.4 14.6-18.9 16.2-7.2 1.3-14.5 0.5-21.7 0.7-1.9 0.1-1.6-1.1-1.6-2.3v-24.9-24c0-1-0.5-2.5 1.4-2.5 7.6 0.2 15.2-0.6 22.7 0.9 10.5 2.1 17 8.3 18.7 19 0.9 5.7 0.9 11.4-0.6 16.9zm36.5-45c-11.4-15.1-27.4-21.4-45.6-21.9-25.4-0.7-50.9-0.2-76.4-0.4-2.6 0-3.3 0.6-3.3 3.3 0.1 27.5 0.1 54.9 0.1 82.4 0 27.4 0 54.7-0.1 82.1 0 2.7 0.4 3.7 3.5 3.7 13.3-0.2 26.5-0.2 39.8 0 2.6 0 3.3-0.6 3.3-3.3-0.1-16.8 0-33.7-0.1-50.5 0-2.2 0.6-2.8 2.8-2.8 10.6 0 21.3 0.5 31.9-0.3 13.4-1 25.9-4.7 36.3-13.5 13.3-11.3 18.4-26.2 18.5-43.1 0.1-13.1-2.8-25.2-10.7-35.7"></path>
			<path class="st0" d="m659.8 627.5c-2.5 0.2-5 0-7.5 0.2-1.3 0.1-1.5-0.6-1.5-1.7v-9.4c0-3 0.1-6.1 0-9.1 0-1.5 0.4-2.1 1.9-2 2.2 0.1 4.4 0 6.6 0.1 3.9 0.2 5.8 1.7 6.4 5.5 0.5 3.6 0.5 7.3 0 11-0.5 3.3-2.6 5.1-5.9 5.4zm13.3 27.4c-2.5-6.9-5.1-13.8-7.6-20.7-0.4-1-1.3-2.1 0.7-3 3.8-1.7 5.5-5.1 5.5-9.2 0.1-3.9 0.1-7.8 0-11.7-0.2-5.5-3.3-8.9-8.7-10-5.2-1-10.5-0.2-15.7-0.5-2-0.1-2.5 0.6-2.5 2.5 0.1 17.4 0.1 34.7 0 52.1 0 3 1.8 2.1 3.3 2.2 1.7 0.1 2.9 0.1 2.8-2.4-0.2-5.5-0.1-10.9-0.1-16.4 0-5.1 0-5 5.1-5.2 2.4-0.1 3.5 0.8 4.2 3 1.8 5.4 3.8 10.7 5.7 16 1.9 5.1 1.9 5.1 7.8 4.8-0.2-0.6-0.4-1.1-0.5-1.5"></path>
			
				<path class="st0" d="m228.4 637.6c-3.1-0.1-6.2 0-9.6 0 1.9-9.4 3.7-18.4 5.5-27.5h0.6c1.7 8.5 3.4 16.9 5.2 25.4 0.3 1.4 0 2.1-1.7 2.1zm11.6 17.1c-3.8-17.5-7.6-35.1-11.3-52.6-0.7-3.4-3.1-1.8-4.9-2.2-1.8-0.3-2.9 0.2-3.2 2.3-0.8 4.5-1.8 9-2.8 13.6-2.9 13.5-5.7 27.1-8.6 40.6 5.6 0.7 5.4 0.7 6.7-4 0.9-3.2-0.1-7.9 2.9-9.3 2.9-1.4 7-0.2 10.6-0.4 1.7-0.1 2.2 0.6 2.5 2 0.5 2.7 1.2 5.3 1.5 8 0.3 3.3 1.8 4.4 5.1 4 1.5-0.2 1.8-0.5 1.5-2"></path>
			
			
				<path class="st0" d="m1053.8 387.3c8.8 0 15.9 7.1 15.9 15.9s-7.1 15.9-15.9 15.9-15.9-7.1-15.9-15.9 7.1-15.9 15.9-15.9zm0 2.8c7.2 0 13 5.8 13 13s-5.8 13-13 13-13-5.8-13-13c0-7.1 5.8-13 13-13zm-7.4 21.3v-16.5h7c1.8 0 3 0.1 3.8 0.4s1.4 0.8 1.9 1.6 0.7 1.6 0.7 2.6c0 1.2-0.4 2.3-1.1 3.1s-1.8 1.3-3.3 1.5c0.7 0.4 1.3 0.9 1.8 1.4s1.1 1.4 1.9 2.7l2 3.2h-4l-2.4-3.6c-0.9-1.3-1.4-2.1-1.8-2.4-0.3-0.3-0.7-0.6-1-0.7-0.4-0.1-0.9-0.2-1.7-0.2h-0.7v6.9h-3.1zm3.3-9.5h2.5c1.6 0 2.6-0.1 3-0.2s0.7-0.4 0.9-0.7 0.3-0.7 0.3-1.2c0-0.6-0.1-1-0.4-1.3s-0.7-0.6-1.3-0.7c-0.3 0-1.1-0.1-2.4-0.1h-2.6v4.2"></path>
			
			<path class="st1" d="m500.5 215.8c-13.8 9-28.9 13.1-45.5 12.2-30.8-1.8-58.5-25-65-55.3-5.7-26.4 1.3-49.4 20.3-68.5 32.6-32.8 65.4-65.3 98-98.1 2.2-2.2 3.2-2 5.2 0.1 32.1 32.3 64.4 64.6 96.7 96.7 2.1 2.1 1.9 3.1-0.1 5-13 12.9-25.9 25.9-38.9 38.8-0.8 0.8-1.8 1.5-3 2.4 1.8 0.4 2.3-0.5 3-1 44-30.4 104.2-4.8 112.3 48 3.8 24.5-4 45.7-21.5 63.2l-97.8 97.8c-2.2 2.2-3.2 2-5.3-0.1-32.2-32.4-64.5-64.7-96.9-97-1.9-1.9-1.7-2.8 0.1-4.5 13.1-13 26-26 39-39.1 0.3-0.5 0.4-1.2 0.7-1.3 0 0.4-0.7 0.4-1.3 0.7"></path>
			<path class="st0" d="m990.6 499h-32.2c-1.8 0-2.7-0.1-1.9-2.3 6.3-16.4 12.6-32.9 18.9-49.3 0.2-0.5 0.3-1 1-1.3 6 15.7 12 31.5 18 47.2 2.1 5.7 2.1 5.7-3.8 5.7zm77 64.9c-23.4-55.8-46.8-111.6-70.2-167.4-0.8-1.9-1.9-2.1-3.6-2.1-11.2 0-22.3 0.1-33.5 0-2.4 0-3.5 0.7-4.4 2.9-22.5 53.8-45.1 107.5-67.6 161.3-1 2.3-2.2 4.5-2.7 7.2h43.1c1.8 0 2-1.2 2.4-2.3 4.1-10.5 8.3-21.1 12.3-31.7 0.7-1.9 1.5-2.7 3.7-2.7 19.3 0.1 38.5 0.1 57.8 0 2.2 0 3.1 0.8 3.8 2.7 4.2 10.6 8.4 21.2 12.6 31.9 0.5 1.2 0.9 2.1 2.5 2.1 14.6-0.1 29.2 0 44.2 0-0.1-1-0.2-1.5-0.4-1.9"></path>
			<path class="st2" d="m588.1 459.6c1.6 34.6 0.3 69.2 0.7 103.9 0 1.9-0.7 2.2-2.4 2.2-11.7-0.1-23.4-0.1-35 0-2 0-2.4-0.6-2.4-2.5 0-55.5 0.1-110.9 0-166.4 0-1.9 0.4-2.5 2.4-2.5 15.7 0.1 31.4 0.1 47 0 2.2 0 2.8 1.1 3.5 2.7 14.5 34.1 29.1 68.1 43.7 102.2 0.5 1.1 0.9 2.1 1.6 3.6 3-6.9 5.7-13.3 8.5-19.8 12.2-28.6 24.5-57.3 36.7-86 0.9-2.1 2-2.7 4.2-2.7 14.8 0.1 29.7 0.1 44.5 0 2.3 0 3.2 0.4 3.2 3-0.1 55.2-0.1 110.3 0 165.5 0 2.4-0.6 3-2.9 2.9-11.7-0.1-23.4-0.1-35.1 0-2.2 0-3.1-0.3-3.1-2.8 0.1-30.2 0-60.4 0.1-90.6 0-4 0.4-8 0.6-12 0.6-1.1 0-2.3 0.2-3.6-0.3 0.5-0.5 0.9-0.9 1.2-6 19.1-14.4 37.1-21.9 55.6-6.7 16.6-13.7 33.1-20.5 49.7-0.8 2-1.7 2.7-3.8 2.6-7.5-0.2-14.9-0.1-22.4 0-1.5 0-2.4-0.1-3.1-1.8-13.6-33.6-28.1-66.8-41-100.7-0.7-1.8-1.2-3.6-1.8-5.4-0.2-0.2-0.3-0.7-0.5-0.7-0.4-0.1-0.2 0.4-0.3 0.6 0 0.5-0.1 1.2 0.2 1.8"></path>
			<path class="st2" d="m118.1 438.7c-9.2-5.5-18.6-9.7-28.8-12.3-8.9-2.2-18-3.7-27.1-1.5-8.7 2.1-13 8.6-10.9 16.2 1 3.8 3.7 6 6.9 7.8 5.9 3.2 12.3 4.8 18.7 6.4 10.6 2.6 21 5.9 30.7 11.1 22.8 12.3 30.3 31.5 27.3 56-2.9 23.4-17.3 37.2-39.1 43-31.8 8.4-61.6 3.5-88.7-15.9-2.6-1.9-3.1-3.5-2.1-6.5 3.3-9.7 6.1-19.6 9.2-29.9 1.1 0.9 1.9 1.5 2.8 2.2 12.2 9.8 25.5 17.3 41.3 19.8 8.1 1.3 16.1 1.4 23.9-1.6 8.4-3.3 12.1-10.1 10.3-18.9-0.8-4.1-3.4-6.9-6.9-8.9-7.4-4.2-15.6-6.2-23.7-8.3-10.5-2.7-20.7-6.1-30-11.8-29.7-18-30.1-61.8-7-80.7 9.1-7.5 19.6-11.7 31.1-13.4 24.7-3.7 47.6 1.3 68.9 14.3 2.1 1.3 2.7 2.5 1.9 5-3.1 9.2-5.8 18.5-8.7 27.9"></path>
			<path class="st2" d="m339.3 480c0-27.5 0-54.9-0.1-82.4 0-2.6 0.6-3.3 3.3-3.3 13.3 0.1 26.5 0.1 39.8 0 2.6 0 3.3 0.5 3.3 3.2-0.1 43.1 0 86.3-0.1 129.4 0 3.2 0.8 4 3.9 3.9 21.9-0.2 43.8 0 65.7-0.1 2.6 0 3.3 0.7 3.3 3.3-0.2 9.7-0.1 19.4 0 29 0 2-0.4 2.7-2.6 2.7-38-0.1-76-0.1-114 0-2.7 0-2.4-1.3-2.4-3.1-0.1-27.5-0.1-55.1-0.1-82.6"></path>
			<path class="st2" d="m523.3 480.1c0 27.5 0 54.9 0.1 82.4 0 2.7-0.7 3.3-3.3 3.2-13.4-0.1-26.7-0.1-40.1 0-2.3 0-2.9-0.5-2.9-2.9 0.1-55.1 0.1-110.3 0-165.4 0-2.5 0.7-3.1 3.1-3.1 13.4 0.1 26.7 0.1 40.1 0 2.4 0 3.1 0.6 3.1 3.1-0.2 27.6-0.1 55.1-0.1 82.7"></path>
			<path class="st2" d="m876.3 642.1c0-0.9 0.1-1.9 0-2.8-0.4-2.6 0.6-3.4 3.3-3.3 2.2 0.1 2.9 0.7 2.8 2.9-0.1 2.5-0.1 5.1 0.1 7.6 0.3 3.7 2.6 5.5 6.6 5.7 4.2 0.2 6.7-1.6 7.4-5.2 0.5-2.7 0.4-5.5 0.2-8.2-0.2-2.5-1.6-4.3-3.8-5.5-3.6-2-7.1-4.1-10.7-6-4.2-2.3-6.3-5.7-6-10.6 0.2-2.9-0.2-5.9 0.5-8.8 0.9-3.7 3-6.2 6.5-7.4 4.1-1.5 8.2-1.4 12.4 0 4.7 1.6 6.6 5.3 6.9 9.9 0.2 2.5 0 5.1 0.1 7.6 0.2 2.8-1.8 2-3.2 2-1.5 0.1-3 0.4-2.9-2.1s0.1-5.1-0.1-7.6c-0.3-3.8-2.6-5.5-7-5.6-4.4 0-6.6 1.7-7 5.5-0.1 0.5 0 1.1-0.1 1.6-1 6.1 1 10.3 7 12.7 3.1 1.2 5.9 3.2 8.7 5 3.2 2.1 4.8 5.2 4.6 9.1-0.1 3.4 0.3 6.7-0.3 10.1-0.2 0.9-0.5 1.8-0.8 2.7-2.1 4.7-7.6 6.8-15.4 5.8-5.5-0.7-8.5-3.4-9.5-8.5-0.3-2.2-0.2-4.4-0.3-6.6"></path>
			<path class="st2" d="m546.3 642.5c0-1.2 0.1-2.3 0-3.5-0.3-2.5 0.6-3.2 3.1-3.2 2.2 0 3 0.6 2.8 2.8-0.2 2.3-0.1 4.6 0 6.9 0.3 4.1 2.5 6.2 6.7 6.4 4.3 0.2 7.1-1.8 7.6-5.8 0.3-2.6 0.2-5.3 0.1-7.9-0.2-2.5-1.9-4.1-4-5.3-3.6-2-7.1-4-10.7-6-3.9-2.2-6-5.5-5.7-10.1 0.1-2 0-4 0-6 0-1.5 0.1-2.9 0.6-4.3 1.9-5.3 7.6-8.1 14.6-7.2 6.8 0.9 10.6 4.5 10.8 10.6 0.1 2.6-0.1 5.3 0.1 7.9 0.2 2.8-1.8 1.9-3.1 2.1-1.6 0.2-2.8 0.1-2.7-2.2 0.2-2.6 0.2-5.3-0.3-7.9-0.8-3.8-2.7-5.2-7.1-5.1-4.2 0-6.5 1.7-6.9 5.3-0.3 2.6-0.2 5.3 0 7.9 0.1 2.2 1.8 3.5 3.5 4.5l10.2 5.7c4.5 2.5 7 6.2 6.6 11.6-0.2 2.5 0 5.1-0.1 7.6-0.3 5.1-2.8 8.2-7.7 9.5-3.1 0.8-6.3 0.8-9.4 0.3-5.8-1-8.6-4.2-8.9-10.1-0.1-1.5 0-3-0.1-4.5 0.1 0 0.1 0 0 0"></path>
			<path class="st2" d="m778.4 628.6v-16.7c0-7.5 3.3-11.3 10.6-12.4 3-0.5 5.9-0.2 8.7 0.7 4.1 1.3 6.5 4.1 7.2 8.3 0.6 3.7 0.2 7.3 0.3 11 0.1 2.9-2.1 1.6-3.4 1.7-1.3 0.2-2.8 0.5-2.7-1.8 0.2-2.6 0.1-5.3 0-7.9-0.2-4.7-2.4-6.7-7.2-6.8-5 0-7.3 1.8-7.4 6.5-0.1 11.4-0.1 22.7 0 34.1 0.1 4.7 2.4 6.7 7.3 6.6 4.8 0 7.1-2.1 7.3-6.7 0.1-3.2 0.1-6.3 0-9.5-0.1-2.1 1.3-1.9 2.5-1.7 1.3 0.2 3.6-1.2 3.5 1.6 0 4.3 0.4 8.6-0.3 12.9-0.2 1.4-0.7 2.7-1.4 3.8-2.7 4.4-9.8 6.2-16.9 4.4-5.3-1.4-8-4.7-8.2-10.5 0-5.9 0.1-11.8 0.1-17.6"></path>
			<g id="path28_00000074420192898148107850000005997139032745385093_">
				<path class="st2" d="m262.4 628.3c0-5.6-0.1-11.2 0-16.7 0.1-7.2 3.2-10.8 10.3-12 3.1-0.5 6.1-0.3 9 0.6 5 1.5 7.2 5.3 7.5 10.2 0.2 3 0 6.1 0.1 9.2 0.1 2.7-1.8 1.8-3.1 1.7-1.2 0-3.2 1-3.1-1.7 0.1-2.8 0.1-5.7-0.1-8.5-0.2-4.2-2.5-6.2-7.1-6.2-4.9 0-7.4 1.8-7.5 6.1-0.1 11.7-0.1 23.4 0 35 0.1 4.1 2.6 6.1 7.3 6 4.6 0 7-2 7.3-6.1 0.2-3.4 0.2-6.7 0.1-10.1-0.1-2.1 1.3-2 2.5-1.7 1.3 0.3 3.6-1.3 3.6 1.5 0 4.4 0.4 8.8-0.4 13.2-0.3 1.7-0.9 3.2-2 4.5-3.1 3.9-11.1 5.3-17.4 3.2-4.6-1.5-6.9-5.3-7.1-11.1v-0.6c0.1-5.6 0.1-11 0.1-16.5" stroke="#fff" stroke-linecap="round" stroke-linejoin="round" stroke-opacity=".49793"></path>
			</g>
			<path class="st2" d="m597.3 628.2c0-8.5 0.1-17 0-25.6 0-2.2 0.6-2.9 2.8-2.8 6 0.1 12 0.2 18 0 2.6-0.1 2.2 1.3 2.3 2.9 0.1 1.7 0 2.8-2.3 2.7-4.1-0.2-8.2 0-12.3-0.1-1.8 0-2.6 0.2-2.6 2.3 0.2 5 0.2 10.1 0 15.1-0.1 2 0.6 2.5 2.5 2.4 3.4-0.1 6.7 0.1 10.1-0.1 2.5-0.1 1.9 1.5 2 2.9s0.2 2.7-2 2.6c-3.4-0.2-6.7 0.1-10.1-0.1-1.8-0.1-2.6 0.3-2.5 2.4 0.2 5.4 0.1 10.7 0 16.1 0 1.8 0.5 2.4 2.3 2.3 4.2-0.1 8.4 0.1 12.6-0.1 2.5-0.1 2.3 1.2 2.4 2.9 0.1 1.8-0.2 2.6-2.3 2.6-6.1-0.2-12.2-0.1-18.3 0-2.1 0-2.7-0.5-2.7-2.6 0.2-8.5 0.1-17.1 0.1-25.8"></path>
			<path class="st2" d="m709 644.8c1.2-6.2 2.4-12.5 3.6-18.7 1.5-7.9 3-15.9 4.6-23.8 0.4-2.1 3.7-3.4 5.6-2.3 0.9 0.5 0.4 1.3 0.3 1.9-3.6 17.6-7.4 35.1-10.9 52.7-0.6 2.9-2.4 2-3.9 2-1.4 0.1-2.9 0.6-3.4-1.9-3.5-17.7-7.3-35.3-11-53-0.3-1.4 0-1.8 1.5-1.9 2.7-0.1 4.5-0.2 5.2 3.5 2.4 13.8 5.2 27.6 7.8 41.4 0.2 0.1 0.4 0.1 0.6 0.1"></path>
			<path class="st2" d="m830.7 628.3c0-8.5 0.1-17.1-0.1-25.6 0-2.5 0.7-3 3-2.9 5.9 0.2 11.8 0.2 17.7 0 2.7-0.1 2.2 1.5 2.3 3 0.1 1.7-0.1 2.7-2.3 2.6-4.2-0.2-8.4 0-12.6-0.1-1.6 0-2.2 0.4-2.2 2.1 0.1 5.3 0.1 10.5 0 15.8 0 1.6 0.6 2 2 1.9 3.5-0.1 7 0.1 10.4-0.1 2.4-0.1 2.1 1.3 2.1 2.8 0 1.6 0.1 2.9-2.2 2.7-3.4-0.2-6.7 0-10.1-0.1-1.8-0.1-2.3 0.6-2.3 2.3 0.1 5.4 0.1 10.7 0 16.1 0 1.8 0.6 2.4 2.3 2.3 4.2-0.1 8.4 0.1 12.6-0.1 2.3-0.1 2.5 0.9 2.6 2.8 0.1 2.1-0.6 2.7-2.7 2.6-6.1-0.1-12.2-0.1-18.3 0-2.1 0.1-2.4-0.7-2.4-2.5 0.3-8.3 0.2-17 0.2-25.6"></path>
			<path class="st2" d="m466.5 600.1c0.2-0.1 0.4-0.2 0.6-0.2 5.1-0.3 5.1-0.3 6.7 4.6 2.4 7.7 4.9 15.3 7.5 23.7 2.3-7.3 4.5-13.8 6.6-20.4 0.7-2.1 1.3-4.2 2-6.3 0.3-1.1 0.9-1.6 2.2-1.7 4.6-0.2 4.6-0.2 3.2 4-3 8.7-6 17.4-9.2 26.1-1.3 3.5-2 7-1.8 10.8 0.2 4.5-0.1 9.1 0.1 13.6 0.1 2.7-1.3 2.5-3.1 2.4-1.5-0.1-3.3 0.5-2.9-2.2 2.5-16.9-4.4-31.9-9.7-47.2-0.8-2.2-1.5-4.4-2.2-6.5-0.2-0.2-0.1-0.5 0-0.7"></path>
			<g id="path38_00000121990540382056874190000002503970837735917961_">
				<path class="st2" d="m169.5 628.2c0-8.6 0.1-17.2 0-25.9 0-1.9 0.5-2.5 2.5-2.5 6 0.1 12 0.2 18 0 2.6-0.1 2.3 1.3 2.3 2.9 0.1 1.6 0 2.8-2.2 2.7-4.1-0.2-8.2 0-12.3-0.1-1.8-0.1-2.3 0.6-2.3 2.3 0.1 5.3 0.1 10.5 0 15.8 0 1.8 0.5 2.4 2.3 2.3 3.4-0.1 6.7 0.1 10.1-0.1 2.3-0.1 1.9 1.3 1.9 2.6s0.5 2.8-1.8 2.7c-3.1-0.1-6.3 0.1-9.5-0.1-2.3-0.1-3.1 0.5-3 2.9 0.2 6.8-0.1 13.7 0.1 20.5 0.1 2.9-1.6 2.2-3.2 2.3-1.7 0.1-2.9 0.2-2.9-2.3 0.1-8.6 0-17.3 0-26" stroke="#fff" stroke-linecap="round" stroke-linejoin="round" stroke-opacity=".49793"></path>
			</g>
			<g id="path40_00000116947861255322219190000008693662546499340211_">
				<path class="st2" d="m347.2 628.1c0-8.3 0.1-16.6 0-24.9 0-2.2 0.2-3.4 3-3.4 2.9 0 3.1 1.1 3.1 3.5-0.1 15 0 30.1-0.1 45.1 0 2.1 0.4 3 2.7 2.8 3.8-0.2 7.6 0 11.4-0.1 2.5-0.1 2 1.6 2 2.9s0.4 2.7-1.9 2.6c-6-0.2-12-0.1-18 0-2 0-2.2-0.8-2.2-2.4v-26.1" stroke="#fff" stroke-linecap="round" stroke-linejoin="round" stroke-opacity=".49793"></path>
			</g>
			<path class="st2" d="m430.9 630.7c0-7.4-0.2-14.7 0.1-22.1 0.1-2.9-0.9-3.7-3.5-3.3-1.1 0.2-2.3-0.1-3.5 0.1-3.2 0.6-3.6-1.1-3.4-3.7 0.1-1.3 0.5-1.8 1.8-1.8 7.7 0 15.3 0.1 23 0 2.4 0 1.7 1.6 1.8 2.8 0 1.3 0.5 3-1.8 2.7h-0.9c-2.5 0.2-5.7-1.1-7.2 0.6-1.2 1.5-0.4 4.6-0.5 7 0 13.7-0.1 27.3 0.1 41 0 2.8-1.2 2.6-3.2 2.7-2.1 0.1-2.9-0.3-2.9-2.7 0.3-7.7 0.1-15.5 0.1-23.3"></path>
			<g id="path44_00000134245334230480045070000011801435756089403795_">
				<path class="st2" d="m314.9 628.2c0-8.5 0.1-17-0.1-25.5-0.1-2.6 1-2.8 3.1-2.9 2.2 0 3.1 0.3 3.1 2.9-0.1 17.1-0.1 34.3 0 51.4 0 2.4-0.9 2.7-2.9 2.6-1.8-0.1-3.4 0.3-3.3-2.6 0.3-8.6 0.1-17.3 0.1-25.9" stroke="#fff" stroke-linecap="round" stroke-linejoin="round" stroke-opacity=".49793"></path>
			</g>
			<g id="path46_00000014627247034313785790000011533549292127101621_">
				<path class="st2" d="m398.1 628.3c0 8.6-0.1 17.2 0.1 25.8 0.1 2.5-1 2.6-3 2.6-1.9 0-3.2 0.1-3.2-2.7 0.2-17.1 0.1-34.2 0-51.4 0-2.6 1.1-2.8 3.2-2.8 2.3-0.1 3 0.5 3 2.9-0.2 8.6-0.1 17.1-0.1 25.6" stroke="#fff" stroke-linecap="round" stroke-linejoin="round" stroke-opacity=".49793"></path>
			</g>
			<path class="st2" d="m752.4 628.6c0 8.4-0.1 16.8 0.1 25.2 0 2.3-0.5 3.1-2.9 3-2.1-0.1-3.1-0.2-3.1-2.8 0.1-17 0.1-34.1 0-51.1 0-2.7 1-2.9 3.3-3 2.8-0.2 2.7 1.2 2.7 3.2-0.1 8.4-0.1 16.9-0.1 25.5"></path>
			<path class="st2" d="m246.6 499.1c-11.6-0.1-23.2-0.1-34.7 0-2.2 0-3-0.2-2.1-2.7 6.5-16.7 12.8-33.5 19.4-51 2.6 6.8 4.9 12.9 7.3 19.1 4 10.6 8 21.2 12.1 31.7 1.1 2.6 0.4 2.9-2 2.9zm74 64.6c-23.4-55.7-46.8-111.4-70.1-167.2-0.8-1.8-1.7-2.2-3.5-2.2-11.3 0.1-22.5 0.1-33.8 0-2.3 0-3.2 0.8-4.1 2.8-20.1 48-40.3 96-60.4 143.9-3.4 8.1-6.8 16.2-10.3 24.6h43.2c2 0 2.2-1.3 2.6-2.5 4.1-10.5 8.3-21.1 12.3-31.7 0.7-1.8 1.6-2.5 3.6-2.5 19.4 0.1 38.7 0.1 58.1 0 1.9 0 2.7 0.6 3.4 2.3 4.1 10.7 8.4 21.2 12.6 31.9 0.7 1.8 1.6 2.5 3.6 2.5 13.7-0.1 27.4 0 41.1-0.1 0.7 0 1.5 0.4 2.1-0.5 0-0.3-0.2-0.8-0.4-1.3"></path>
			<path class="st2" d="m858.9 461.6c-2.6 9.6-9.4 14.6-18.9 16.2-7.2 1.3-14.5 0.5-21.7 0.7-1.9 0.1-1.6-1.1-1.6-2.3v-24.9-24c0-1-0.5-2.5 1.4-2.5 7.6 0.2 15.2-0.6 22.7 0.9 10.5 2.1 17 8.3 18.7 19 0.9 5.7 0.9 11.4-0.6 16.9zm36.5-45c-11.4-15.1-27.4-21.4-45.6-21.9-25.4-0.7-50.9-0.2-76.4-0.4-2.6 0-3.3 0.6-3.3 3.3 0.1 27.5 0.1 54.9 0.1 82.4 0 27.4 0 54.7-0.1 82.1 0 2.7 0.4 3.7 3.5 3.7 13.3-0.2 26.5-0.2 39.8 0 2.6 0 3.3-0.6 3.3-3.3-0.1-16.8 0-33.7-0.1-50.5 0-2.2 0.6-2.8 2.8-2.8 10.6 0 21.3 0.5 31.9-0.3 13.4-1 25.9-4.7 36.3-13.5 13.3-11.3 18.4-26.2 18.5-43.1 0.1-13.1-2.8-25.2-10.7-35.7"></path>
			<path class="st2" d="m659.8 627.5c-2.5 0.2-5 0-7.5 0.2-1.3 0.1-1.5-0.6-1.5-1.7v-9.4c0-3 0.1-6.1 0-9.1 0-1.5 0.4-2.1 1.9-2 2.2 0.1 4.4 0 6.6 0.1 3.9 0.2 5.8 1.7 6.4 5.5 0.5 3.6 0.5 7.3 0 11-0.5 3.3-2.6 5.1-5.9 5.4zm13.3 27.4c-2.5-6.9-5.1-13.8-7.6-20.7-0.4-1-1.3-2.1 0.7-3 3.8-1.7 5.5-5.1 5.5-9.2 0.1-3.9 0.1-7.8 0-11.7-0.2-5.5-3.3-8.9-8.7-10-5.2-1-10.5-0.2-15.7-0.5-2-0.1-2.5 0.6-2.5 2.5 0.1 17.4 0.1 34.7 0 52.1 0 3 1.8 2.1 3.3 2.2 1.7 0.1 2.9 0.1 2.8-2.4-0.2-5.5-0.1-10.9-0.1-16.4 0-5.1 0-5 5.1-5.2 2.4-0.1 3.5 0.8 4.2 3 1.8 5.4 3.8 10.7 5.7 16 1.9 5.1 1.9 5.1 7.8 4.8-0.2-0.6-0.4-1.1-0.5-1.5"></path>
			<g id="path62_00000044886901617349080200000004668840151535837612_">
				<path class="st2" d="m228.4 637.6c-3.1-0.1-6.2 0-9.6 0 1.9-9.4 3.7-18.4 5.5-27.5h0.6c1.7 8.5 3.4 16.9 5.2 25.4 0.3 1.4 0 2.1-1.7 2.1zm11.6 17.1c-3.8-17.5-7.6-35.1-11.3-52.6-0.7-3.4-3.1-1.8-4.9-2.2-1.8-0.3-2.9 0.2-3.2 2.3-0.8 4.5-1.8 9-2.8 13.6-2.9 13.5-5.7 27.1-8.6 40.6 5.6 0.7 5.4 0.7 6.7-4 0.9-3.2-0.1-7.9 2.9-9.3 2.9-1.4 7-0.2 10.6-0.4 1.7-0.1 2.2 0.6 2.5 2 0.5 2.7 1.2 5.3 1.5 8 0.3 3.3 1.8 4.4 5.1 4 1.5-0.2 1.8-0.5 1.5-2" stroke="#fff" stroke-linecap="round" stroke-linejoin="round" stroke-opacity=".49793"></path>
			</g>
			<g id="path64_00000052084387668477850290000014728931153573738415_">
				<path class="st2" d="m1053.8 387.3c8.8 0 15.9 7.1 15.9 15.9s-7.1 15.9-15.9 15.9-15.9-7.1-15.9-15.9 7.1-15.9 15.9-15.9zm0 2.8c7.2 0 13 5.8 13 13s-5.8 13-13 13-13-5.8-13-13c0-7.1 5.8-13 13-13zm-7.4 21.3v-16.5h7c1.8 0 3 0.1 3.8 0.4s1.4 0.8 1.9 1.6 0.7 1.6 0.7 2.6c0 1.2-0.4 2.3-1.1 3.1s-1.8 1.3-3.3 1.5c0.7 0.4 1.3 0.9 1.8 1.4s1.1 1.4 1.9 2.7l2 3.2h-4l-2.4-3.6c-0.9-1.3-1.4-2.1-1.8-2.4-0.3-0.3-0.7-0.6-1-0.7-0.4-0.1-0.9-0.2-1.7-0.2h-0.7v6.9h-3.1zm3.3-9.5h2.5c1.6 0 2.6-0.1 3-0.2s0.7-0.4 0.9-0.7 0.3-0.7 0.3-1.2c0-0.6-0.1-1-0.4-1.3s-0.7-0.6-1.3-0.7c-0.3 0-1.1-0.1-2.4-0.1h-2.6v4.2" stroke="#fff" stroke-linecap="round" stroke-linejoin="round" stroke-opacity=".49793"></path>
			</g>
			<path class="st3" d="m500.5 215.8c-13.8 9-28.9 13.1-45.5 12.2-30.8-1.8-58.5-25-65-55.3-5.7-26.4 1.3-49.4 20.3-68.5 32.6-32.8 65.4-65.3 98-98.1 2.2-2.2 3.2-2 5.2 0.1 32.1 32.3 64.4 64.6 96.7 96.7 2.1 2.1 1.9 3.1-0.1 5-13 12.9-25.9 25.9-38.9 38.8-0.8 0.8-1.8 1.5-3 2.4 1.8 0.4 2.3-0.5 3-1 44-30.4 104.2-4.8 112.3 48 3.8 24.5-4 45.7-21.5 63.2l-97.8 97.8c-2.2 2.2-3.2 2-5.3-0.1-32.2-32.4-64.5-64.7-96.9-97-1.9-1.9-1.7-2.8 0.1-4.5 13.1-13 26-26 39-39.1 0.3-0.5 0.4-1.2 0.7-1.3 0 0.4-0.7 0.4-1.3 0.7"></path>
			<path class="st2" d="m990.6 499h-32.2c-1.8 0-2.7-0.1-1.9-2.3 6.3-16.4 12.6-32.9 18.9-49.3 0.2-0.5 0.3-1 1-1.3 6 15.7 12 31.5 18 47.2 2.1 5.7 2.1 5.7-3.8 5.7zm77 64.9c-23.4-55.8-46.8-111.6-70.2-167.4-0.8-1.9-1.9-2.1-3.6-2.1-11.2 0-22.3 0.1-33.5 0-2.4 0-3.5 0.7-4.4 2.9-22.5 53.8-45.1 107.5-67.6 161.3-1 2.3-2.2 4.5-2.7 7.2h43.1c1.8 0 2-1.2 2.4-2.3 4.1-10.5 8.3-21.1 12.3-31.7 0.7-1.9 1.5-2.7 3.7-2.7 19.3 0.1 38.5 0.1 57.8 0 2.2 0 3.1 0.8 3.8 2.7 4.2 10.6 8.4 21.2 12.6 31.9 0.5 1.2 0.9 2.1 2.5 2.1 14.6-0.1 29.2 0 44.2 0-0.1-1-0.2-1.5-0.4-1.9"></path>
		</g>
	</g>
</switch>

</svg>
